<mxfile host="app.diagrams.net" modified="2021-11-13T01:34:45.907Z" agent="5.0 (Windows NT 10.0; Win64; x64) AppleWebKit/537.36 (KHTML, like Gecko) Chrome/95.0.4638.69 Safari/537.36 Edg/95.0.1020.44" etag="dpC_JpEpE0eCXZ1s2TF_" version="15.7.3" type="github">
  <diagram name="Page-1" id="55a83fd1-7818-8e21-69c5-c3457e3827bb">
    <mxGraphModel dx="2138" dy="579" grid="1" gridSize="10" guides="1" tooltips="1" connect="1" arrows="1" fold="1" page="1" pageScale="1" pageWidth="1100" pageHeight="850" background="none" math="0" shadow="0">
      <root>
        <mxCell id="0" />
        <mxCell id="1" parent="0" />
        <mxCell id="69ecfefc5c41e42c-18" style="edgeStyle=none;rounded=0;html=1;labelBackgroundColor=none;endArrow=none;strokeWidth=2;fontFamily=Verdana;fontSize=22" parent="1" source="69ecfefc5c41e42c-1" target="69ecfefc5c41e42c-3" edge="1">
          <mxGeometry relative="1" as="geometry" />
        </mxCell>
        <mxCell id="69ecfefc5c41e42c-1" value="" style="image;html=1;labelBackgroundColor=#ffffff;image=img/lib/clip_art/networking/Wireless_Router_128x128.png;rounded=1;shadow=0;comic=0;strokeWidth=2;fontSize=22" parent="1" vertex="1">
          <mxGeometry x="470" y="465" width="80" height="80" as="geometry" />
        </mxCell>
        <mxCell id="69ecfefc5c41e42c-2" value="Internet" style="image;html=1;labelBackgroundColor=#ffffff;image=img/lib/clip_art/networking/Cloud_128x128.png;rounded=1;shadow=0;comic=0;strokeWidth=2;fontSize=22;labelPosition=center;verticalLabelPosition=top;align=center;verticalAlign=bottom;" parent="1" vertex="1">
          <mxGeometry x="470" y="140" width="80" height="80" as="geometry" />
        </mxCell>
        <mxCell id="69ecfefc5c41e42c-19" style="edgeStyle=none;rounded=0;html=1;labelBackgroundColor=none;endArrow=none;strokeWidth=2;fontFamily=Verdana;fontSize=22" parent="1" source="69ecfefc5c41e42c-3" target="69ecfefc5c41e42c-2" edge="1">
          <mxGeometry relative="1" as="geometry" />
        </mxCell>
        <mxCell id="69ecfefc5c41e42c-3" value="Firewall" style="image;html=1;labelBackgroundColor=#ffffff;image=img/lib/clip_art/networking/Firewall_128x128.png;rounded=1;shadow=0;comic=0;strokeWidth=2;fontSize=22;labelPosition=right;verticalLabelPosition=middle;align=left;verticalAlign=middle;" parent="1" vertex="1">
          <mxGeometry x="470" y="290" width="80" height="80" as="geometry" />
        </mxCell>
        <mxCell id="69ecfefc5c41e42c-4" value="Tablet" style="image;html=1;labelBackgroundColor=#ffffff;image=img/lib/clip_art/computers/iPad_128x128.png;rounded=1;shadow=0;comic=0;strokeWidth=2;fontSize=22" parent="1" vertex="1">
          <mxGeometry x="500" y="700" width="80" height="80" as="geometry" />
        </mxCell>
        <mxCell id="69ecfefc5c41e42c-5" value="PC" style="image;html=1;labelBackgroundColor=#ffffff;image=img/lib/clip_art/computers/Monitor_Tower_128x128.png;rounded=1;shadow=0;comic=0;strokeWidth=2;fontSize=22" parent="1" vertex="1">
          <mxGeometry x="150" y="640" width="80" height="80" as="geometry" />
        </mxCell>
        <mxCell id="69ecfefc5c41e42c-6" value="Printer" style="image;html=1;labelBackgroundColor=#ffffff;image=img/lib/clip_art/computers/Printer_128x128.png;rounded=1;shadow=0;comic=0;strokeWidth=2;fontSize=22" parent="1" vertex="1">
          <mxGeometry x="150" y="440" width="80" height="80" as="geometry" />
        </mxCell>
        <mxCell id="69ecfefc5c41e42c-7" value="PC" style="image;html=1;labelBackgroundColor=#ffffff;image=img/lib/clip_art/computers/Workstation_128x128.png;rounded=1;shadow=0;comic=0;strokeWidth=2;fontSize=22" parent="1" vertex="1">
          <mxGeometry x="730" y="670" width="80" height="80" as="geometry" />
        </mxCell>
        <mxCell id="69ecfefc5c41e42c-8" value="Mobile" style="image;html=1;labelBackgroundColor=#ffffff;image=img/lib/clip_art/telecommunication/iPhone_128x128.png;rounded=1;shadow=0;comic=0;strokeWidth=2;fontSize=22" parent="1" vertex="1">
          <mxGeometry x="800" y="550" width="80" height="80" as="geometry" />
        </mxCell>
        <mxCell id="69ecfefc5c41e42c-9" value="Laptop" style="image;html=1;labelBackgroundColor=#ffffff;image=img/lib/clip_art/computers/Netbook_128x128.png;rounded=1;shadow=0;comic=0;strokeColor=#000000;strokeWidth=2;fillColor=#FFFFFF;fontSize=22;fontColor=#000000;" parent="1" vertex="1">
          <mxGeometry x="810" y="400" width="80" height="80" as="geometry" />
        </mxCell>
        <mxCell id="69ecfefc5c41e42c-10" value="Laptop" style="image;html=1;labelBackgroundColor=#ffffff;image=img/lib/clip_art/computers/Netbook_128x128.png;rounded=1;shadow=0;comic=0;strokeWidth=2;fontSize=22" parent="1" vertex="1">
          <mxGeometry x="320" y="710" width="80" height="80" as="geometry" />
        </mxCell>
        <mxCell id="69ecfefc5c41e42c-11" value="" style="html=1;fillColor=#CCCCCC;strokeColor=#6881B3;gradientColor=none;gradientDirection=north;strokeWidth=2;shape=mxgraph.networks.comm_link_edge;html=1;labelBackgroundColor=none;endArrow=none;fontFamily=Verdana;fontSize=22;fontColor=#000000;" parent="1" source="69ecfefc5c41e42c-6" target="69ecfefc5c41e42c-1" edge="1">
          <mxGeometry width="100" height="100" relative="1" as="geometry">
            <mxPoint x="300" y="390" as="sourcePoint" />
            <mxPoint x="400" y="290" as="targetPoint" />
          </mxGeometry>
        </mxCell>
        <mxCell id="69ecfefc5c41e42c-12" value="" style="html=1;fillColor=#CCCCCC;strokeColor=#6881B3;gradientColor=none;gradientDirection=north;strokeWidth=2;shape=mxgraph.networks.comm_link_edge;html=1;labelBackgroundColor=none;endArrow=none;fontFamily=Verdana;fontSize=22;fontColor=#000000;fontStyle=1" parent="1" source="69ecfefc5c41e42c-5" target="69ecfefc5c41e42c-1" edge="1">
          <mxGeometry width="100" height="100" relative="1" as="geometry">
            <mxPoint x="320" y="481.9565217391305" as="sourcePoint" />
            <mxPoint x="470" y="508.0434782608695" as="targetPoint" />
          </mxGeometry>
        </mxCell>
        <mxCell id="69ecfefc5c41e42c-13" value="" style="html=1;fillColor=#CCCCCC;strokeColor=#6881B3;gradientColor=none;gradientDirection=north;strokeWidth=2;shape=mxgraph.networks.comm_link_edge;html=1;labelBackgroundColor=none;endArrow=none;fontFamily=Verdana;fontSize=22;fontColor=#000000;" parent="1" source="69ecfefc5c41e42c-10" target="69ecfefc5c41e42c-1" edge="1">
          <mxGeometry width="100" height="100" relative="1" as="geometry">
            <mxPoint x="330" y="491.9565217391305" as="sourcePoint" />
            <mxPoint x="480" y="518.0434782608695" as="targetPoint" />
          </mxGeometry>
        </mxCell>
        <mxCell id="69ecfefc5c41e42c-14" value="" style="html=1;fillColor=#CCCCCC;strokeColor=#6881B3;gradientColor=none;gradientDirection=north;strokeWidth=2;shape=mxgraph.networks.comm_link_edge;html=1;labelBackgroundColor=none;endArrow=none;fontFamily=Verdana;fontSize=22;fontColor=#000000;" parent="1" source="69ecfefc5c41e42c-4" target="69ecfefc5c41e42c-1" edge="1">
          <mxGeometry width="100" height="100" relative="1" as="geometry">
            <mxPoint x="340" y="501.9565217391305" as="sourcePoint" />
            <mxPoint x="490" y="528.0434782608695" as="targetPoint" />
          </mxGeometry>
        </mxCell>
        <mxCell id="69ecfefc5c41e42c-15" value="" style="html=1;fillColor=#CCCCCC;strokeColor=#6881B3;gradientColor=none;gradientDirection=north;strokeWidth=2;shape=mxgraph.networks.comm_link_edge;html=1;labelBackgroundColor=none;endArrow=none;fontFamily=Verdana;fontSize=22;fontColor=#000000;" parent="1" source="69ecfefc5c41e42c-7" target="69ecfefc5c41e42c-1" edge="1">
          <mxGeometry width="100" height="100" relative="1" as="geometry">
            <mxPoint x="350" y="511.9565217391305" as="sourcePoint" />
            <mxPoint x="500" y="538.0434782608695" as="targetPoint" />
          </mxGeometry>
        </mxCell>
        <mxCell id="69ecfefc5c41e42c-16" value="" style="html=1;fillColor=#CCCCCC;strokeColor=#6881B3;gradientColor=none;gradientDirection=north;strokeWidth=2;shape=mxgraph.networks.comm_link_edge;html=1;labelBackgroundColor=none;endArrow=none;fontFamily=Verdana;fontSize=22;fontColor=#000000;" parent="1" source="69ecfefc5c41e42c-8" target="69ecfefc5c41e42c-1" edge="1">
          <mxGeometry width="100" height="100" relative="1" as="geometry">
            <mxPoint x="360" y="521.9565217391305" as="sourcePoint" />
            <mxPoint x="510" y="548.0434782608695" as="targetPoint" />
          </mxGeometry>
        </mxCell>
        <mxCell id="69ecfefc5c41e42c-17" value="" style="html=1;fillColor=#CCCCCC;strokeColor=#6881B3;gradientColor=none;gradientDirection=north;strokeWidth=2;shape=mxgraph.networks.comm_link_edge;html=1;labelBackgroundColor=none;endArrow=none;fontFamily=Verdana;fontSize=22;fontColor=#000000;" parent="1" source="69ecfefc5c41e42c-9" target="69ecfefc5c41e42c-1" edge="1">
          <mxGeometry width="100" height="100" relative="1" as="geometry">
            <mxPoint x="370" y="531.9565217391305" as="sourcePoint" />
            <mxPoint x="520" y="558.0434782608695" as="targetPoint" />
          </mxGeometry>
        </mxCell>
        <mxCell id="Lv90qYV1EOB2ra-l5W6n-3" value="" style="line;strokeWidth=4;direction=south;html=1;perimeter=backbonePerimeter;points=[];outlineConnect=0;" vertex="1" parent="1">
          <mxGeometry x="310" y="1200" width="10" height="850" as="geometry" />
        </mxCell>
        <mxCell id="Lv90qYV1EOB2ra-l5W6n-4" value="" style="line;strokeWidth=4;direction=south;html=1;perimeter=backbonePerimeter;points=[];outlineConnect=0;" vertex="1" parent="1">
          <mxGeometry x="630" y="1200" width="10" height="850" as="geometry" />
        </mxCell>
        <mxCell id="Lv90qYV1EOB2ra-l5W6n-5" value="" style="line;strokeWidth=4;direction=south;html=1;perimeter=backbonePerimeter;points=[];outlineConnect=0;" vertex="1" parent="1">
          <mxGeometry x="920" y="1200" width="10" height="850" as="geometry" />
        </mxCell>
        <mxCell id="Lv90qYV1EOB2ra-l5W6n-6" value="" style="image;html=1;image=img/lib/clip_art/computers/Server_Tower_128x128.png" vertex="1" parent="1">
          <mxGeometry x="595" y="1070" width="80" height="80" as="geometry" />
        </mxCell>
        <mxCell id="Lv90qYV1EOB2ra-l5W6n-7" value="" style="image;html=1;image=img/lib/clip_art/computers/MacBook_128x128.png" vertex="1" parent="1">
          <mxGeometry x="-75" y="1070" width="80" height="80" as="geometry" />
        </mxCell>
        <mxCell id="Lv90qYV1EOB2ra-l5W6n-8" value="" style="image;html=1;image=img/lib/clip_art/computers/Netbook_128x128.png" vertex="1" parent="1">
          <mxGeometry x="1205" y="1070" width="80" height="80" as="geometry" />
        </mxCell>
        <mxCell id="Lv90qYV1EOB2ra-l5W6n-9" value="服务&lt;span style=&quot;color: rgba(0 , 0 , 0 , 0) ; font-family: monospace ; font-size: 0px&quot;&gt;3CmxGraphModel%3E%3Croot%3E%3CmxCell%20id%3D%220%22%2F%3E%3CmxCell%20id%3D%221%22%20parent%3D%220%22%2F%3E%3CmxCell%20id%3D%222%22%20value%3D%22%22%20style%3D%22line%3BstrokeWidth%3D4%3Bdirection%3Dsouth%3Bhtml%3D1%3Bperimeter%3DbackbonePerimeter%3Bpoints%3D%5B%5D%3BoutlineConnect%3D0%3B%22%20vertex%3D%221%22%20parent%3D%221%22%3E%3CmxGeometry%20x%3D%22330%22%20y%3D%221000%22%20width%3D%2210%22%20height%3D%22850%22%20as%3D%22geometry%22%2F%3E%3C%2FmxCell%3E%3C%2Froot%3E%3C%2FmxGraphModel%3E&lt;/span&gt;器" style="text;html=1;strokeColor=none;fillColor=none;align=center;verticalAlign=middle;whiteSpace=wrap;rounded=0;" vertex="1" parent="1">
          <mxGeometry x="520" y="1060" width="75" height="30" as="geometry" />
        </mxCell>
        <mxCell id="Lv90qYV1EOB2ra-l5W6n-10" value="客户端 1" style="text;html=1;strokeColor=none;fillColor=none;align=center;verticalAlign=middle;whiteSpace=wrap;rounded=0;" vertex="1" parent="1">
          <mxGeometry x="-20" y="1030" width="60" height="30" as="geometry" />
        </mxCell>
        <mxCell id="Lv90qYV1EOB2ra-l5W6n-11" value="客户端 2" style="text;html=1;strokeColor=none;fillColor=none;align=center;verticalAlign=middle;whiteSpace=wrap;rounded=0;" vertex="1" parent="1">
          <mxGeometry x="1190" y="1030" width="60" height="30" as="geometry" />
        </mxCell>
        <mxCell id="Lv90qYV1EOB2ra-l5W6n-12" value="" style="endArrow=classic;html=1;rounded=0;" edge="1" parent="1">
          <mxGeometry relative="1" as="geometry">
            <mxPoint x="340" y="1250" as="sourcePoint" />
            <mxPoint x="610" y="1250" as="targetPoint" />
          </mxGeometry>
        </mxCell>
        <mxCell id="Lv90qYV1EOB2ra-l5W6n-13" value="连接服务器" style="edgeLabel;resizable=0;html=1;align=center;verticalAlign=middle;" connectable="0" vertex="1" parent="Lv90qYV1EOB2ra-l5W6n-12">
          <mxGeometry relative="1" as="geometry" />
        </mxCell>
        <mxCell id="Lv90qYV1EOB2ra-l5W6n-14" value="Source" style="edgeLabel;resizable=0;html=1;align=left;verticalAlign=bottom;" connectable="0" vertex="1" parent="Lv90qYV1EOB2ra-l5W6n-12">
          <mxGeometry x="-1" relative="1" as="geometry" />
        </mxCell>
        <mxCell id="Lv90qYV1EOB2ra-l5W6n-15" value="Target" style="edgeLabel;resizable=0;html=1;align=right;verticalAlign=bottom;" connectable="0" vertex="1" parent="Lv90qYV1EOB2ra-l5W6n-12">
          <mxGeometry x="1" relative="1" as="geometry" />
        </mxCell>
        <mxCell id="Lv90qYV1EOB2ra-l5W6n-16" value="" style="line;strokeWidth=4;direction=south;html=1;perimeter=backbonePerimeter;points=[];outlineConnect=0;" vertex="1" parent="1">
          <mxGeometry x="-40" y="1200" width="10" height="850" as="geometry" />
        </mxCell>
        <mxCell id="Lv90qYV1EOB2ra-l5W6n-17" value="" style="line;strokeWidth=4;direction=south;html=1;perimeter=backbonePerimeter;points=[];outlineConnect=0;" vertex="1" parent="1">
          <mxGeometry x="1285" y="1220" width="10" height="850" as="geometry" />
        </mxCell>
        <mxCell id="Lv90qYV1EOB2ra-l5W6n-18" value="" style="image;html=1;image=img/lib/clip_art/networking/Router_Icon_128x128.png" vertex="1" parent="1">
          <mxGeometry x="280" y="1080" width="80" height="80" as="geometry" />
        </mxCell>
        <mxCell id="Lv90qYV1EOB2ra-l5W6n-19" value="" style="image;html=1;image=img/lib/clip_art/networking/Router_Icon_128x128.png" vertex="1" parent="1">
          <mxGeometry x="880" y="1080" width="80" height="80" as="geometry" />
        </mxCell>
        <mxCell id="Lv90qYV1EOB2ra-l5W6n-20" value="NAT" style="text;html=1;strokeColor=none;fillColor=none;align=center;verticalAlign=middle;whiteSpace=wrap;rounded=0;" vertex="1" parent="1">
          <mxGeometry x="285" y="1040" width="75" height="30" as="geometry" />
        </mxCell>
        <mxCell id="Lv90qYV1EOB2ra-l5W6n-21" value="NAT" style="text;html=1;strokeColor=none;fillColor=none;align=center;verticalAlign=middle;whiteSpace=wrap;rounded=0;" vertex="1" parent="1">
          <mxGeometry x="885" y="1040" width="75" height="30" as="geometry" />
        </mxCell>
        <mxCell id="Lv90qYV1EOB2ra-l5W6n-22" value="" style="endArrow=classic;html=1;rounded=0;" edge="1" parent="1">
          <mxGeometry relative="1" as="geometry">
            <mxPoint x="15" y="1230" as="sourcePoint" />
            <mxPoint x="285" y="1230" as="targetPoint" />
          </mxGeometry>
        </mxCell>
        <mxCell id="Lv90qYV1EOB2ra-l5W6n-23" value="连接服务器" style="edgeLabel;resizable=0;html=1;align=center;verticalAlign=middle;" connectable="0" vertex="1" parent="Lv90qYV1EOB2ra-l5W6n-22">
          <mxGeometry relative="1" as="geometry" />
        </mxCell>
        <mxCell id="Lv90qYV1EOB2ra-l5W6n-24" value="Source" style="edgeLabel;resizable=0;html=1;align=left;verticalAlign=bottom;" connectable="0" vertex="1" parent="Lv90qYV1EOB2ra-l5W6n-22">
          <mxGeometry x="-1" relative="1" as="geometry" />
        </mxCell>
        <mxCell id="Lv90qYV1EOB2ra-l5W6n-25" value="Target" style="edgeLabel;resizable=0;html=1;align=right;verticalAlign=bottom;" connectable="0" vertex="1" parent="Lv90qYV1EOB2ra-l5W6n-22">
          <mxGeometry x="1" relative="1" as="geometry" />
        </mxCell>
        <mxCell id="Lv90qYV1EOB2ra-l5W6n-30" value="" style="endArrow=classic;html=1;rounded=0;" edge="1" parent="1">
          <mxGeometry relative="1" as="geometry">
            <mxPoint x="610" y="1310" as="sourcePoint" />
            <mxPoint x="340" y="1310" as="targetPoint" />
          </mxGeometry>
        </mxCell>
        <mxCell id="Lv90qYV1EOB2ra-l5W6n-31" value="响应在线客户端列表" style="edgeLabel;resizable=0;html=1;align=center;verticalAlign=middle;" connectable="0" vertex="1" parent="Lv90qYV1EOB2ra-l5W6n-30">
          <mxGeometry relative="1" as="geometry" />
        </mxCell>
        <mxCell id="Lv90qYV1EOB2ra-l5W6n-32" value="Source" style="edgeLabel;resizable=0;html=1;align=left;verticalAlign=bottom;" connectable="0" vertex="1" parent="Lv90qYV1EOB2ra-l5W6n-30">
          <mxGeometry x="-1" relative="1" as="geometry" />
        </mxCell>
        <mxCell id="Lv90qYV1EOB2ra-l5W6n-33" value="Target" style="edgeLabel;resizable=0;html=1;align=right;verticalAlign=bottom;" connectable="0" vertex="1" parent="Lv90qYV1EOB2ra-l5W6n-30">
          <mxGeometry x="1" relative="1" as="geometry" />
        </mxCell>
        <mxCell id="Lv90qYV1EOB2ra-l5W6n-34" value="" style="endArrow=classic;html=1;rounded=0;" edge="1" parent="1">
          <mxGeometry relative="1" as="geometry">
            <mxPoint x="300" y="1340" as="sourcePoint" />
            <mxPoint x="30" y="1340" as="targetPoint" />
          </mxGeometry>
        </mxCell>
        <mxCell id="Lv90qYV1EOB2ra-l5W6n-35" value="响应在线客户端列表" style="edgeLabel;resizable=0;html=1;align=center;verticalAlign=middle;" connectable="0" vertex="1" parent="Lv90qYV1EOB2ra-l5W6n-34">
          <mxGeometry relative="1" as="geometry" />
        </mxCell>
        <mxCell id="Lv90qYV1EOB2ra-l5W6n-36" value="Source" style="edgeLabel;resizable=0;html=1;align=left;verticalAlign=bottom;" connectable="0" vertex="1" parent="Lv90qYV1EOB2ra-l5W6n-34">
          <mxGeometry x="-1" relative="1" as="geometry" />
        </mxCell>
        <mxCell id="Lv90qYV1EOB2ra-l5W6n-37" value="Target" style="edgeLabel;resizable=0;html=1;align=right;verticalAlign=bottom;" connectable="0" vertex="1" parent="Lv90qYV1EOB2ra-l5W6n-34">
          <mxGeometry x="1" relative="1" as="geometry" />
        </mxCell>
        <mxCell id="Lv90qYV1EOB2ra-l5W6n-38" value="" style="endArrow=classic;html=1;rounded=0;" edge="1" parent="1">
          <mxGeometry relative="1" as="geometry">
            <mxPoint x="15" y="1430" as="sourcePoint" />
            <mxPoint x="285" y="1430" as="targetPoint" />
          </mxGeometry>
        </mxCell>
        <mxCell id="Lv90qYV1EOB2ra-l5W6n-39" value="我已打好洞，请服务器要求客户端2来钻洞" style="edgeLabel;resizable=0;html=1;align=center;verticalAlign=middle;" connectable="0" vertex="1" parent="Lv90qYV1EOB2ra-l5W6n-38">
          <mxGeometry relative="1" as="geometry" />
        </mxCell>
        <mxCell id="Lv90qYV1EOB2ra-l5W6n-40" value="Source" style="edgeLabel;resizable=0;html=1;align=left;verticalAlign=bottom;" connectable="0" vertex="1" parent="Lv90qYV1EOB2ra-l5W6n-38">
          <mxGeometry x="-1" relative="1" as="geometry" />
        </mxCell>
        <mxCell id="Lv90qYV1EOB2ra-l5W6n-41" value="Target" style="edgeLabel;resizable=0;html=1;align=right;verticalAlign=bottom;" connectable="0" vertex="1" parent="Lv90qYV1EOB2ra-l5W6n-38">
          <mxGeometry x="1" relative="1" as="geometry" />
        </mxCell>
        <mxCell id="Lv90qYV1EOB2ra-l5W6n-42" value="" style="endArrow=classic;html=1;rounded=0;" edge="1" parent="1">
          <mxGeometry relative="1" as="geometry">
            <mxPoint x="20" y="1380" as="sourcePoint" />
            <mxPoint x="290" y="1380" as="targetPoint" />
          </mxGeometry>
        </mxCell>
        <mxCell id="Lv90qYV1EOB2ra-l5W6n-43" value="打洞" style="edgeLabel;resizable=0;html=1;align=center;verticalAlign=middle;" connectable="0" vertex="1" parent="Lv90qYV1EOB2ra-l5W6n-42">
          <mxGeometry relative="1" as="geometry" />
        </mxCell>
        <mxCell id="Lv90qYV1EOB2ra-l5W6n-44" value="Source" style="edgeLabel;resizable=0;html=1;align=left;verticalAlign=bottom;" connectable="0" vertex="1" parent="Lv90qYV1EOB2ra-l5W6n-42">
          <mxGeometry x="-1" relative="1" as="geometry" />
        </mxCell>
        <mxCell id="Lv90qYV1EOB2ra-l5W6n-45" value="Target" style="edgeLabel;resizable=0;html=1;align=right;verticalAlign=bottom;" connectable="0" vertex="1" parent="Lv90qYV1EOB2ra-l5W6n-42">
          <mxGeometry x="1" relative="1" as="geometry" />
        </mxCell>
        <mxCell id="Lv90qYV1EOB2ra-l5W6n-46" value="" style="endArrow=classic;html=1;rounded=0;" edge="1" parent="1">
          <mxGeometry relative="1" as="geometry">
            <mxPoint x="330" y="1450" as="sourcePoint" />
            <mxPoint x="600" y="1450" as="targetPoint" />
          </mxGeometry>
        </mxCell>
        <mxCell id="Lv90qYV1EOB2ra-l5W6n-47" value="我已打好洞，请服务器要求客户端2来钻洞" style="edgeLabel;resizable=0;html=1;align=center;verticalAlign=middle;" connectable="0" vertex="1" parent="Lv90qYV1EOB2ra-l5W6n-46">
          <mxGeometry relative="1" as="geometry" />
        </mxCell>
        <mxCell id="Lv90qYV1EOB2ra-l5W6n-48" value="Source" style="edgeLabel;resizable=0;html=1;align=left;verticalAlign=bottom;" connectable="0" vertex="1" parent="Lv90qYV1EOB2ra-l5W6n-46">
          <mxGeometry x="-1" relative="1" as="geometry" />
        </mxCell>
        <mxCell id="Lv90qYV1EOB2ra-l5W6n-49" value="Target" style="edgeLabel;resizable=0;html=1;align=right;verticalAlign=bottom;" connectable="0" vertex="1" parent="Lv90qYV1EOB2ra-l5W6n-46">
          <mxGeometry x="1" relative="1" as="geometry" />
        </mxCell>
        <mxCell id="Lv90qYV1EOB2ra-l5W6n-50" value="" style="endArrow=classic;html=1;rounded=0;" edge="1" parent="1">
          <mxGeometry relative="1" as="geometry">
            <mxPoint x="630" y="1480" as="sourcePoint" />
            <mxPoint x="900" y="1480" as="targetPoint" />
          </mxGeometry>
        </mxCell>
        <mxCell id="Lv90qYV1EOB2ra-l5W6n-51" value="客户端1已打好洞，要求你去钻洞" style="edgeLabel;resizable=0;html=1;align=center;verticalAlign=middle;" connectable="0" vertex="1" parent="Lv90qYV1EOB2ra-l5W6n-50">
          <mxGeometry relative="1" as="geometry" />
        </mxCell>
        <mxCell id="Lv90qYV1EOB2ra-l5W6n-52" value="Source" style="edgeLabel;resizable=0;html=1;align=left;verticalAlign=bottom;" connectable="0" vertex="1" parent="Lv90qYV1EOB2ra-l5W6n-50">
          <mxGeometry x="-1" relative="1" as="geometry" />
        </mxCell>
        <mxCell id="Lv90qYV1EOB2ra-l5W6n-53" value="Target" style="edgeLabel;resizable=0;html=1;align=right;verticalAlign=bottom;" connectable="0" vertex="1" parent="Lv90qYV1EOB2ra-l5W6n-50">
          <mxGeometry x="1" relative="1" as="geometry" />
        </mxCell>
        <mxCell id="Lv90qYV1EOB2ra-l5W6n-54" value="" style="endArrow=classic;html=1;rounded=0;" edge="1" parent="1">
          <mxGeometry relative="1" as="geometry">
            <mxPoint x="940" y="1500" as="sourcePoint" />
            <mxPoint x="1210" y="1500" as="targetPoint" />
          </mxGeometry>
        </mxCell>
        <mxCell id="Lv90qYV1EOB2ra-l5W6n-55" value="客户端1已打好洞，要求你去钻洞" style="edgeLabel;resizable=0;html=1;align=center;verticalAlign=middle;" connectable="0" vertex="1" parent="Lv90qYV1EOB2ra-l5W6n-54">
          <mxGeometry relative="1" as="geometry" />
        </mxCell>
        <mxCell id="Lv90qYV1EOB2ra-l5W6n-56" value="Source" style="edgeLabel;resizable=0;html=1;align=left;verticalAlign=bottom;" connectable="0" vertex="1" parent="Lv90qYV1EOB2ra-l5W6n-54">
          <mxGeometry x="-1" relative="1" as="geometry" />
        </mxCell>
        <mxCell id="Lv90qYV1EOB2ra-l5W6n-57" value="Target" style="edgeLabel;resizable=0;html=1;align=right;verticalAlign=bottom;" connectable="0" vertex="1" parent="Lv90qYV1EOB2ra-l5W6n-54">
          <mxGeometry x="1" relative="1" as="geometry" />
        </mxCell>
        <mxCell id="Lv90qYV1EOB2ra-l5W6n-58" value="" style="endArrow=classic;html=1;rounded=0;" edge="1" parent="1">
          <mxGeometry relative="1" as="geometry">
            <mxPoint x="1260" y="1560" as="sourcePoint" />
            <mxPoint x="940" y="1560" as="targetPoint" />
          </mxGeometry>
        </mxCell>
        <mxCell id="Lv90qYV1EOB2ra-l5W6n-59" value="钻洞，1-65535个洞，依次钻洞，看哪个洞钻得进去" style="edgeLabel;resizable=0;html=1;align=center;verticalAlign=middle;" connectable="0" vertex="1" parent="Lv90qYV1EOB2ra-l5W6n-58">
          <mxGeometry relative="1" as="geometry" />
        </mxCell>
        <mxCell id="Lv90qYV1EOB2ra-l5W6n-60" value="Source" style="edgeLabel;resizable=0;html=1;align=left;verticalAlign=bottom;" connectable="0" vertex="1" parent="Lv90qYV1EOB2ra-l5W6n-58">
          <mxGeometry x="-1" relative="1" as="geometry" />
        </mxCell>
        <mxCell id="Lv90qYV1EOB2ra-l5W6n-61" value="Target" style="edgeLabel;resizable=0;html=1;align=right;verticalAlign=bottom;" connectable="0" vertex="1" parent="Lv90qYV1EOB2ra-l5W6n-58">
          <mxGeometry x="1" relative="1" as="geometry" />
        </mxCell>
        <mxCell id="Lv90qYV1EOB2ra-l5W6n-62" value="" style="endArrow=classic;html=1;rounded=0;" edge="1" parent="1">
          <mxGeometry relative="1" as="geometry">
            <mxPoint x="900" y="1590" as="sourcePoint" />
            <mxPoint x="330" y="1590" as="targetPoint" />
          </mxGeometry>
        </mxCell>
        <mxCell id="Lv90qYV1EOB2ra-l5W6n-63" value="钻洞，1-65535个洞，依次钻洞，看哪个洞钻得进去" style="edgeLabel;resizable=0;html=1;align=center;verticalAlign=middle;" connectable="0" vertex="1" parent="Lv90qYV1EOB2ra-l5W6n-62">
          <mxGeometry relative="1" as="geometry" />
        </mxCell>
        <mxCell id="Lv90qYV1EOB2ra-l5W6n-64" value="Source" style="edgeLabel;resizable=0;html=1;align=left;verticalAlign=bottom;" connectable="0" vertex="1" parent="Lv90qYV1EOB2ra-l5W6n-62">
          <mxGeometry x="-1" relative="1" as="geometry" />
        </mxCell>
        <mxCell id="Lv90qYV1EOB2ra-l5W6n-65" value="Target" style="edgeLabel;resizable=0;html=1;align=right;verticalAlign=bottom;" connectable="0" vertex="1" parent="Lv90qYV1EOB2ra-l5W6n-62">
          <mxGeometry x="1" relative="1" as="geometry" />
        </mxCell>
        <mxCell id="Lv90qYV1EOB2ra-l5W6n-66" value="" style="endArrow=classic;html=1;rounded=0;" edge="1" parent="1">
          <mxGeometry relative="1" as="geometry">
            <mxPoint x="300" y="1610" as="sourcePoint" />
            <mxPoint x="-20" y="1610" as="targetPoint" />
          </mxGeometry>
        </mxCell>
        <mxCell id="Lv90qYV1EOB2ra-l5W6n-67" value="钻洞，1-65535个洞，依次钻洞，看哪个洞钻得进去" style="edgeLabel;resizable=0;html=1;align=center;verticalAlign=middle;" connectable="0" vertex="1" parent="Lv90qYV1EOB2ra-l5W6n-66">
          <mxGeometry relative="1" as="geometry" />
        </mxCell>
        <mxCell id="Lv90qYV1EOB2ra-l5W6n-68" value="Source" style="edgeLabel;resizable=0;html=1;align=left;verticalAlign=bottom;" connectable="0" vertex="1" parent="Lv90qYV1EOB2ra-l5W6n-66">
          <mxGeometry x="-1" relative="1" as="geometry" />
        </mxCell>
        <mxCell id="Lv90qYV1EOB2ra-l5W6n-69" value="Target" style="edgeLabel;resizable=0;html=1;align=right;verticalAlign=bottom;" connectable="0" vertex="1" parent="Lv90qYV1EOB2ra-l5W6n-66">
          <mxGeometry x="1" relative="1" as="geometry" />
        </mxCell>
        <mxCell id="Lv90qYV1EOB2ra-l5W6n-70" value="" style="endArrow=classic;html=1;rounded=0;" edge="1" parent="1" source="Lv90qYV1EOB2ra-l5W6n-16">
          <mxGeometry relative="1" as="geometry">
            <mxPoint x="-10" y="1670" as="sourcePoint" />
            <mxPoint x="300" y="1670" as="targetPoint" />
          </mxGeometry>
        </mxCell>
        <mxCell id="Lv90qYV1EOB2ra-l5W6n-71" value="客户端2钻洞成功，&lt;br&gt;向服务器报告客户端1、客户端2的&lt;br&gt;公网IP及端口" style="edgeLabel;resizable=0;html=1;align=center;verticalAlign=middle;" connectable="0" vertex="1" parent="Lv90qYV1EOB2ra-l5W6n-70">
          <mxGeometry relative="1" as="geometry" />
        </mxCell>
        <mxCell id="Lv90qYV1EOB2ra-l5W6n-72" value="Source" style="edgeLabel;resizable=0;html=1;align=left;verticalAlign=bottom;" connectable="0" vertex="1" parent="Lv90qYV1EOB2ra-l5W6n-70">
          <mxGeometry x="-1" relative="1" as="geometry" />
        </mxCell>
        <mxCell id="Lv90qYV1EOB2ra-l5W6n-73" value="Target" style="edgeLabel;resizable=0;html=1;align=right;verticalAlign=bottom;" connectable="0" vertex="1" parent="Lv90qYV1EOB2ra-l5W6n-70">
          <mxGeometry x="1" relative="1" as="geometry" />
        </mxCell>
        <mxCell id="Lv90qYV1EOB2ra-l5W6n-74" value="" style="endArrow=classic;html=1;rounded=0;" edge="1" parent="1">
          <mxGeometry relative="1" as="geometry">
            <mxPoint x="306" y="1700" as="sourcePoint" />
            <mxPoint x="640" y="1700" as="targetPoint" />
          </mxGeometry>
        </mxCell>
        <mxCell id="Lv90qYV1EOB2ra-l5W6n-75" value="客户端2钻洞成功，&lt;br&gt;向服务器报告客户端1、客户端2的&lt;br&gt;公网IP及端口" style="edgeLabel;resizable=0;html=1;align=center;verticalAlign=middle;" connectable="0" vertex="1" parent="Lv90qYV1EOB2ra-l5W6n-74">
          <mxGeometry relative="1" as="geometry" />
        </mxCell>
        <mxCell id="Lv90qYV1EOB2ra-l5W6n-76" value="Source" style="edgeLabel;resizable=0;html=1;align=left;verticalAlign=bottom;" connectable="0" vertex="1" parent="Lv90qYV1EOB2ra-l5W6n-74">
          <mxGeometry x="-1" relative="1" as="geometry" />
        </mxCell>
        <mxCell id="Lv90qYV1EOB2ra-l5W6n-77" value="Target" style="edgeLabel;resizable=0;html=1;align=right;verticalAlign=bottom;" connectable="0" vertex="1" parent="Lv90qYV1EOB2ra-l5W6n-74">
          <mxGeometry x="1" relative="1" as="geometry" />
        </mxCell>
        <mxCell id="Lv90qYV1EOB2ra-l5W6n-78" value="" style="endArrow=classic;html=1;rounded=0;" edge="1" parent="1">
          <mxGeometry relative="1" as="geometry">
            <mxPoint x="630" y="1790" as="sourcePoint" />
            <mxPoint x="964" y="1790" as="targetPoint" />
          </mxGeometry>
        </mxCell>
        <mxCell id="Lv90qYV1EOB2ra-l5W6n-79" value="告诉客户端2钻洞成功，&lt;br&gt;并告知客户端1、客户端2的公网IP及端口" style="edgeLabel;resizable=0;html=1;align=center;verticalAlign=middle;" connectable="0" vertex="1" parent="Lv90qYV1EOB2ra-l5W6n-78">
          <mxGeometry relative="1" as="geometry" />
        </mxCell>
        <mxCell id="Lv90qYV1EOB2ra-l5W6n-80" value="Source" style="edgeLabel;resizable=0;html=1;align=left;verticalAlign=bottom;" connectable="0" vertex="1" parent="Lv90qYV1EOB2ra-l5W6n-78">
          <mxGeometry x="-1" relative="1" as="geometry" />
        </mxCell>
        <mxCell id="Lv90qYV1EOB2ra-l5W6n-81" value="Target" style="edgeLabel;resizable=0;html=1;align=right;verticalAlign=bottom;" connectable="0" vertex="1" parent="Lv90qYV1EOB2ra-l5W6n-78">
          <mxGeometry x="1" relative="1" as="geometry" />
        </mxCell>
        <mxCell id="Lv90qYV1EOB2ra-l5W6n-82" value="" style="endArrow=classic;html=1;rounded=0;" edge="1" parent="1">
          <mxGeometry relative="1" as="geometry">
            <mxPoint x="930" y="1840" as="sourcePoint" />
            <mxPoint x="1264" y="1840" as="targetPoint" />
          </mxGeometry>
        </mxCell>
        <mxCell id="Lv90qYV1EOB2ra-l5W6n-83" value="告诉客户端2钻洞成功，&lt;br&gt;并告知客户端1、客户端2的公网IP及端口" style="edgeLabel;resizable=0;html=1;align=center;verticalAlign=middle;" connectable="0" vertex="1" parent="Lv90qYV1EOB2ra-l5W6n-82">
          <mxGeometry relative="1" as="geometry" />
        </mxCell>
        <mxCell id="Lv90qYV1EOB2ra-l5W6n-84" value="Source" style="edgeLabel;resizable=0;html=1;align=left;verticalAlign=bottom;" connectable="0" vertex="1" parent="Lv90qYV1EOB2ra-l5W6n-82">
          <mxGeometry x="-1" relative="1" as="geometry" />
        </mxCell>
        <mxCell id="Lv90qYV1EOB2ra-l5W6n-85" value="Target" style="edgeLabel;resizable=0;html=1;align=right;verticalAlign=bottom;" connectable="0" vertex="1" parent="Lv90qYV1EOB2ra-l5W6n-82">
          <mxGeometry x="1" relative="1" as="geometry" />
        </mxCell>
        <mxCell id="Lv90qYV1EOB2ra-l5W6n-86" value="" style="endArrow=classic;html=1;rounded=0;" edge="1" parent="1">
          <mxGeometry relative="1" as="geometry">
            <mxPoint x="1270" y="1940" as="sourcePoint" />
            <mxPoint x="950" y="1940" as="targetPoint" />
          </mxGeometry>
        </mxCell>
        <mxCell id="Lv90qYV1EOB2ra-l5W6n-87" value="现在可以和客户端1点对点通信了" style="edgeLabel;resizable=0;html=1;align=center;verticalAlign=middle;" connectable="0" vertex="1" parent="Lv90qYV1EOB2ra-l5W6n-86">
          <mxGeometry relative="1" as="geometry" />
        </mxCell>
        <mxCell id="Lv90qYV1EOB2ra-l5W6n-88" value="Source" style="edgeLabel;resizable=0;html=1;align=left;verticalAlign=bottom;" connectable="0" vertex="1" parent="Lv90qYV1EOB2ra-l5W6n-86">
          <mxGeometry x="-1" relative="1" as="geometry" />
        </mxCell>
        <mxCell id="Lv90qYV1EOB2ra-l5W6n-89" value="Target" style="edgeLabel;resizable=0;html=1;align=right;verticalAlign=bottom;" connectable="0" vertex="1" parent="Lv90qYV1EOB2ra-l5W6n-86">
          <mxGeometry x="1" relative="1" as="geometry" />
        </mxCell>
        <mxCell id="Lv90qYV1EOB2ra-l5W6n-90" value="" style="endArrow=classic;html=1;rounded=0;" edge="1" parent="1">
          <mxGeometry relative="1" as="geometry">
            <mxPoint x="885" y="1970" as="sourcePoint" />
            <mxPoint x="340" y="1970" as="targetPoint" />
          </mxGeometry>
        </mxCell>
        <mxCell id="Lv90qYV1EOB2ra-l5W6n-91" value="现在可以和客户端1点对点通信了" style="edgeLabel;resizable=0;html=1;align=center;verticalAlign=middle;" connectable="0" vertex="1" parent="Lv90qYV1EOB2ra-l5W6n-90">
          <mxGeometry relative="1" as="geometry" />
        </mxCell>
        <mxCell id="Lv90qYV1EOB2ra-l5W6n-92" value="Source" style="edgeLabel;resizable=0;html=1;align=left;verticalAlign=bottom;" connectable="0" vertex="1" parent="Lv90qYV1EOB2ra-l5W6n-90">
          <mxGeometry x="-1" relative="1" as="geometry" />
        </mxCell>
        <mxCell id="Lv90qYV1EOB2ra-l5W6n-93" value="Target" style="edgeLabel;resizable=0;html=1;align=right;verticalAlign=bottom;" connectable="0" vertex="1" parent="Lv90qYV1EOB2ra-l5W6n-90">
          <mxGeometry x="1" relative="1" as="geometry" />
        </mxCell>
        <mxCell id="Lv90qYV1EOB2ra-l5W6n-94" value="" style="endArrow=classic;html=1;rounded=0;" edge="1" parent="1">
          <mxGeometry relative="1" as="geometry">
            <mxPoint x="300" y="2000" as="sourcePoint" />
            <mxPoint x="-20" y="2000" as="targetPoint" />
          </mxGeometry>
        </mxCell>
        <mxCell id="Lv90qYV1EOB2ra-l5W6n-95" value="现在可以和客户端1点对点通信了" style="edgeLabel;resizable=0;html=1;align=center;verticalAlign=middle;" connectable="0" vertex="1" parent="Lv90qYV1EOB2ra-l5W6n-94">
          <mxGeometry relative="1" as="geometry" />
        </mxCell>
        <mxCell id="Lv90qYV1EOB2ra-l5W6n-96" value="Source" style="edgeLabel;resizable=0;html=1;align=left;verticalAlign=bottom;" connectable="0" vertex="1" parent="Lv90qYV1EOB2ra-l5W6n-94">
          <mxGeometry x="-1" relative="1" as="geometry" />
        </mxCell>
        <mxCell id="Lv90qYV1EOB2ra-l5W6n-97" value="Target" style="edgeLabel;resizable=0;html=1;align=right;verticalAlign=bottom;" connectable="0" vertex="1" parent="Lv90qYV1EOB2ra-l5W6n-94">
          <mxGeometry x="1" relative="1" as="geometry" />
        </mxCell>
      </root>
    </mxGraphModel>
  </diagram>
</mxfile>
